<svg width="400" height="400" viewBox="0 50 400 300" fill="none" xmlns="http://www.w3.org/2000/svg">
<rect width="400" height="400" fill="#171923"/>
<path d="M83.1007 310C80.3837 310 77.8499 309.513 75.5604 308.57C73.2708 307.627 71.256 306.227 69.577 304.432C67.8979 302.607 66.5547 300.386 65.6084 297.799C64.662 295.183 64.2041 292.232 64.2041 288.915C64.2041 284.534 64.9978 280.792 66.6158 277.658C68.2032 274.525 70.4317 272.091 73.2708 270.387C76.1099 268.683 79.3763 267.831 83.1007 267.831C87.8935 267.831 91.7095 268.926 94.5485 271.147C97.3876 273.368 99.3414 276.411 100.379 280.336L94.3959 281.37C93.5717 278.936 92.2285 277.019 90.3968 275.559C88.5651 274.129 86.245 273.368 83.4365 273.368C80.5669 273.338 78.1552 273.977 76.2625 275.285C74.3393 276.593 72.9045 278.388 71.9581 280.731C71.0118 283.074 70.4928 285.782 70.4928 288.885C70.4623 291.988 70.9507 294.696 71.8971 297.008C72.8434 299.321 74.3087 301.146 76.232 302.424C78.1552 303.732 80.5669 304.371 83.4365 304.402C85.7566 304.432 87.7409 304.006 89.4199 303.124C91.0989 302.241 92.4116 300.933 93.3885 299.199C94.3654 297.465 95.0065 295.365 95.2812 292.84H87.3746V288.094H101.539C101.57 288.429 101.6 288.885 101.631 289.433C101.661 289.98 101.661 290.345 101.661 290.498C101.661 294.24 100.929 297.586 99.494 300.538C98.0287 303.489 95.9223 305.801 93.1748 307.475C90.3968 309.148 87.0388 310 83.1007 310Z" fill="white"/>
<path d="M119.429 309.999C116.376 309.999 113.72 309.3 111.492 307.93C109.263 306.561 107.523 304.675 106.302 302.271C105.081 299.868 104.47 297.069 104.47 293.935C104.47 290.771 105.081 287.972 106.332 285.568C107.584 283.165 109.324 281.278 111.553 279.94C113.781 278.601 116.407 277.932 119.398 277.932C122.451 277.932 125.107 278.631 127.335 280.001C129.564 281.37 131.304 283.256 132.525 285.66C133.746 288.063 134.357 290.832 134.357 293.965C134.357 297.13 133.746 299.929 132.495 302.332C131.273 304.736 129.533 306.622 127.274 307.991C125.107 309.33 122.451 309.999 119.429 309.999ZM119.429 304.462C122.359 304.462 124.527 303.488 125.962 301.511C127.396 299.564 128.129 297.008 128.129 293.935C128.129 290.771 127.396 288.215 125.931 286.329C124.466 284.412 122.298 283.469 119.429 283.469C117.444 283.469 115.826 283.925 114.544 284.808C113.262 285.69 112.316 286.937 111.705 288.489C111.095 290.041 110.759 291.866 110.759 293.935C110.759 297.13 111.492 299.685 112.957 301.602C114.422 303.488 116.59 304.462 119.429 304.462Z" fill="white"/>
<path d="M152.734 309.999C149.681 309.999 147.025 309.3 144.797 307.93C142.568 306.561 140.828 304.675 139.607 302.271C138.386 299.868 137.775 297.069 137.775 293.935C137.775 290.771 138.386 287.972 139.638 285.568C140.889 283.165 142.629 281.278 144.858 279.94C147.086 278.601 149.712 277.932 152.703 277.932C155.756 277.932 158.412 278.631 160.641 280.001C162.869 281.37 164.609 283.256 165.83 285.66C167.051 288.063 167.662 290.832 167.662 293.965C167.662 297.13 167.051 299.929 165.8 302.332C164.579 304.736 162.839 306.622 160.58 307.991C158.382 309.33 155.756 309.999 152.734 309.999ZM152.734 304.462C155.665 304.462 157.832 303.488 159.267 301.511C160.702 299.564 161.434 297.008 161.434 293.935C161.434 290.771 160.702 288.215 159.236 286.329C157.771 284.412 155.604 283.469 152.734 283.469C150.75 283.469 149.132 283.925 147.85 284.808C146.567 285.69 145.621 286.937 145.01 288.489C144.4 290.041 144.064 291.866 144.064 293.935C144.064 297.13 144.797 299.685 146.262 301.602C147.727 303.488 149.864 304.462 152.734 304.462Z" fill="white"/>
<path d="M184.88 309.999C182.041 309.999 179.599 309.3 177.523 307.9C175.447 306.5 173.86 304.584 172.761 302.15C171.631 299.716 171.082 296.977 171.082 293.935C171.082 290.893 171.631 288.154 172.791 285.72C173.921 283.317 175.539 281.4 177.614 280C179.69 278.601 182.163 277.901 185.033 277.901C187.902 277.901 190.344 278.601 192.298 280C194.252 281.4 195.748 283.317 196.755 285.72C197.763 288.154 198.251 290.862 198.251 293.905C198.251 296.947 197.732 299.685 196.725 302.089C195.717 304.492 194.221 306.44 192.237 307.839C190.253 309.3 187.811 309.999 184.88 309.999ZM185.704 304.675C187.658 304.675 189.215 304.219 190.436 303.306C191.657 302.393 192.542 301.115 193.122 299.503C193.703 297.89 193.977 296.034 193.977 293.935C193.977 291.836 193.703 289.98 193.122 288.367C192.542 286.755 191.657 285.507 190.467 284.595C189.276 283.682 187.75 283.256 185.918 283.256C183.964 283.256 182.346 283.743 181.095 284.686C179.843 285.629 178.897 286.937 178.286 288.55C177.676 290.162 177.37 291.957 177.37 293.965C177.37 295.973 177.676 297.799 178.286 299.411C178.897 301.024 179.812 302.332 181.064 303.275C182.255 304.188 183.812 304.675 185.704 304.675ZM193.977 309.147V287.272H193.306V268.622H199.228V309.147H193.977Z" fill="white"/>
<path d="M203.746 283.499V278.753H222.398V283.499H203.746ZM208.814 309.148V277.688C208.814 276.928 208.844 276.106 208.905 275.224C208.966 274.342 209.119 273.49 209.394 272.638C209.668 271.786 210.126 270.995 210.767 270.295C211.531 269.443 212.385 268.865 213.301 268.5C214.217 268.135 215.133 267.922 216.049 267.892C216.965 267.831 217.789 267.8 218.583 267.8H222.429V272.638H218.857C217.453 272.638 216.415 272.973 215.743 273.672C215.041 274.372 214.706 275.315 214.706 276.593V309.178H208.814V309.148ZM228.351 273.764V268.074H234.243V273.764H228.351ZM228.351 309.148V278.753H234.243V309.148H228.351Z" fill="white"/>
<path d="M241.6 309.147V278.753H246.851V286.116L246.118 285.173C246.485 284.199 246.973 283.286 247.584 282.495C248.194 281.674 248.896 281.005 249.659 280.487C250.423 279.94 251.277 279.483 252.254 279.179C253.201 278.875 254.177 278.692 255.185 278.601C256.192 278.54 257.139 278.601 258.054 278.753V284.26C257.047 283.986 255.948 283.925 254.727 284.047C253.506 284.169 252.407 284.534 251.369 285.203C250.423 285.812 249.659 286.572 249.11 287.455C248.56 288.337 248.164 289.31 247.919 290.406C247.675 291.471 247.553 292.627 247.553 293.813V309.147H241.6Z" fill="white"/>
<path d="M262.267 309.148V278.753H267.518V287.546H268.189V309.148H262.267ZM280.553 309.148L280.584 290.315C280.584 288.094 280.034 286.36 278.905 285.112C277.775 283.865 276.279 283.226 274.387 283.226C272.524 283.226 271.029 283.865 269.868 285.143C268.739 286.42 268.159 288.094 268.159 290.163L265.35 288.368C265.35 286.39 265.839 284.595 266.785 283.043C267.732 281.492 269.044 280.244 270.693 279.362C272.341 278.449 274.173 278.023 276.249 278.023C278.416 278.023 280.248 278.48 281.774 279.392C283.301 280.305 284.461 281.583 285.254 283.195C286.048 284.838 286.445 286.725 286.445 288.885L286.414 309.178H280.553V309.148ZM298.809 309.148L298.839 290.193C298.839 288.003 298.29 286.299 297.16 285.051C296.031 283.834 294.535 283.195 292.703 283.195C291.574 283.195 290.536 283.439 289.62 283.956C288.673 284.473 287.941 285.234 287.361 286.268C286.781 287.303 286.506 288.581 286.506 290.102L283.667 288.672C283.636 286.542 284.094 284.656 285.041 283.043C285.987 281.431 287.3 280.183 288.918 279.301C290.566 278.419 292.398 277.962 294.413 277.962C297.71 277.962 300.243 278.936 302.075 280.914C303.876 282.891 304.792 285.508 304.792 288.763L304.762 309.117H298.809V309.148Z" fill="white"/>
<path d="M322.62 309.969C318.926 309.969 315.904 309.147 313.553 307.535C311.233 305.892 309.799 303.61 309.249 300.628L315.294 299.685C315.66 301.267 316.545 302.515 317.919 303.427C319.293 304.34 320.972 304.797 323.017 304.797C324.849 304.797 326.314 304.431 327.352 303.671C328.39 302.91 328.909 301.876 328.909 300.567C328.909 299.807 328.726 299.168 328.359 298.681C327.993 298.194 327.23 297.738 326.07 297.312C324.91 296.886 323.109 296.338 320.727 295.7C318.102 295.03 316.026 294.3 314.5 293.509C312.973 292.718 311.874 291.836 311.233 290.771C310.592 289.736 310.256 288.458 310.256 286.998C310.256 285.173 310.745 283.56 311.722 282.191C312.699 280.822 314.072 279.757 315.874 278.996C317.644 278.236 319.751 277.871 322.132 277.871C324.452 277.871 326.558 278.236 328.359 278.966C330.191 279.696 331.656 280.731 332.786 282.069C333.915 283.408 334.587 284.99 334.831 286.785L328.787 287.88C328.573 286.42 327.901 285.264 326.711 284.412C325.551 283.56 324.024 283.104 322.162 283.043C320.361 282.982 318.926 283.256 317.827 283.925C316.728 284.594 316.148 285.507 316.148 286.663C316.148 287.333 316.362 287.911 316.789 288.367C317.217 288.824 318.041 289.28 319.262 289.706C320.483 290.132 322.284 290.649 324.696 291.258C327.26 291.927 329.275 292.627 330.802 293.448C332.297 294.239 333.396 295.182 334.037 296.278C334.679 297.373 335.014 298.712 335.014 300.263C335.014 303.275 333.915 305.618 331.717 307.322C329.519 309.117 326.497 309.969 322.62 309.969Z" fill="white"/>
<path d="M131.734 123.056H199.904H268.074V99.6564C268.074 91.6377 261.564 85.1499 253.518 85.1499C253.518 85.1499 213.289 86.462 199.904 86.462C186.519 86.462 146.29 85.1499 146.29 85.1499C138.244 85.1499 131.734 91.6377 131.734 99.6564V123.056Z" fill="#DBB879"/>
<path d="M149.801 217.384L174.011 235.025C189.444 246.251 210.437 246.251 225.87 235.025L250.08 217.384C261.417 209.147 268.147 196.025 268.147 182.029V99.0722C268.147 91.0536 261.564 84.7844 253.591 85.1489L242.693 86.3882C214.313 89.5956 185.641 89.5956 157.261 86.3882L146.29 85.1489C138.317 84.8573 131.734 91.1265 131.734 99.0722V181.956C131.734 195.952 138.464 209.147 149.801 217.384Z" fill="url(#paint0_linear_1174_86)"/>
<g opacity="0.2">
<path d="M228.381 150.319L215.727 162.639L218.726 179.988C218.872 180.717 218.506 181.519 217.921 181.957C217.555 182.248 217.117 182.321 216.751 182.321C216.458 182.321 216.092 182.248 215.8 182.102L200.147 173.938L184.421 182.102C183.763 182.467 182.885 182.394 182.3 181.957C181.642 181.519 181.349 180.717 181.496 179.988L184.495 162.639L171.841 150.319C171.256 149.809 171.109 149.007 171.329 148.278C171.548 147.549 172.207 147.039 172.938 146.893L190.419 144.342L198.246 128.523C198.904 127.138 201.171 127.138 201.903 128.523L209.729 144.342L227.21 146.893C227.942 147.039 228.6 147.549 228.819 148.278C229.112 149.007 228.893 149.809 228.381 150.319Z" fill="black"/>
</g>
<path d="M228.38 147.403L215.726 159.722L218.725 177.072C218.871 177.801 218.506 178.603 217.921 179.04C217.555 179.332 217.116 179.405 216.75 179.405C216.458 179.405 216.092 179.332 215.799 179.186L200.147 171.021L184.421 179.186C183.763 179.55 182.885 179.477 182.3 179.04C181.642 178.603 181.349 177.801 181.495 177.072L184.494 159.722L171.84 147.403C171.255 146.893 171.109 146.091 171.328 145.362C171.548 144.633 172.206 144.122 172.937 143.977L190.419 141.425L198.245 125.607C198.903 124.222 201.171 124.222 201.902 125.607L209.729 141.425L227.21 143.977C227.941 144.122 228.6 144.633 228.819 145.362C229.112 146.091 228.892 146.893 228.38 147.403Z" fill="white"/>
<defs>
<linearGradient id="paint0_linear_1174_86" x1="131.734" y1="164.283" x2="268.117" y2="164.283" gradientUnits="userSpaceOnUse">
<stop stop-color="#DCB45A"/>
<stop offset="0.1499" stop-color="#CFA84F"/>
<stop offset="0.4257" stop-color="#AD8733"/>
<stop offset="0.5" stop-color="#A37D2B"/>
<stop offset="0.5833" stop-color="#AD8634"/>
<stop offset="0.8439" stop-color="#C69F4A"/>
<stop offset="1" stop-color="#D0A853"/>
</linearGradient>
</defs>
</svg>
